<svg xmlns="http://www.w3.org/2000/svg" width="1200" height="360" viewBox="0 0 1200 360" role="img" aria-label="公开资源表">
  <style>
    .title { font: 700 30px 'Microsoft YaHei', 'PingFang SC', 'Noto Sans CJK SC', Arial, sans-serif; fill: #111827; }
    .th { font: 700 22px 'Microsoft YaHei', 'PingFang SC', 'Noto Sans CJK SC', Arial, sans-serif; fill: #ffffff; }
    .td { font: 500 20px 'Microsoft YaHei', 'PingFang SC', 'Noto Sans CJK SC', Arial, sans-serif; fill: #1f2937; }
    .link { font: 500 20px 'Microsoft YaHei', 'PingFang SC', 'Noto Sans CJK SC', Arial, sans-serif; fill: #0A66C2; }
    .border { stroke: #cbd5e1; stroke-width: 1; fill: #ffffff; }
    .header { fill: #0A66C2; }
  </style>
  <text x="0" y="34" class="title">公开资源</text>
  <rect x="0" y="64" width="220" height="58" class="header"/>
  <rect x="220" y="64" width="500" height="58" class="header"/>
  <rect x="720" y="64" width="480" height="58" class="header"/>
  <text x="110" y="101" text-anchor="middle" class="th">资源</text>
  <text x="470" y="101" text-anchor="middle" class="th">入口</text>
  <text x="960" y="101" text-anchor="middle" class="th">说明</text>
  <rect x="0" y="122" width="220" height="56" class="border"/>
  <rect x="220" y="122" width="500" height="56" class="border"/>
  <rect x="720" y="122" width="480" height="56" class="border"/>
  <text x="18" y="157" class="td">社交对话数据集</text>
  <text x="238" y="157" class="link">Hugging Face / Social Subset</text>
  <text x="738" y="157" class="td">面向社交与心理场景的公开子集</text>
  <rect x="0" y="178" width="220" height="56" class="border"/>
  <rect x="220" y="178" width="500" height="56" class="border"/>
  <rect x="720" y="178" width="480" height="56" class="border"/>
  <text x="18" y="213" class="td">知识对话数据集</text>
  <text x="238" y="213" class="link">Hugging Face / Knowledge Subset</text>
  <text x="738" y="213" class="td">面向知识与教育场景的公开子集</text>
  <rect x="0" y="234" width="220" height="56" class="border"/>
  <rect x="220" y="234" width="500" height="56" class="border"/>
  <rect x="720" y="234" width="480" height="56" class="border"/>
  <text x="18" y="269" class="td">ClawHub Skill</text>
  <text x="238" y="269" class="link">ClawHub / minor-detection</text>
  <text x="738" y="269" class="td">可直接调用的轻量化能力形态</text>
  <rect x="0" y="290" width="220" height="56" class="border"/>
  <rect x="220" y="290" width="500" height="56" class="border"/>
  <rect x="720" y="290" width="480" height="56" class="border"/>
  <text x="18" y="325" class="td">项目演示视频</text>
  <text x="238" y="325" class="link">Bilibili / 完整系统演示</text>
  <text x="738" y="325" class="td">完整系统演示视频</text>
</svg>
