<svg xmlns="http://www.w3.org/2000/svg" width="1200" height="320" viewBox="0 0 1200 320" role="img" aria-label="数据拆解表">
  <style>
    .title { font: 700 26px 'Microsoft YaHei', 'PingFang SC', 'Noto Sans CJK SC', Arial, sans-serif; fill: #111827; }
    .th { font: 700 22px 'Microsoft YaHei', 'PingFang SC', 'Noto Sans CJK SC', Arial, sans-serif; fill: #ffffff; }
    .td { font: 500 20px 'Microsoft YaHei', 'PingFang SC', 'Noto Sans CJK SC', Arial, sans-serif; fill: #1f2937; }
    .num { font: 700 20px 'Microsoft YaHei', 'PingFang SC', 'Noto Sans CJK SC', Arial, sans-serif; fill: #0f172a; }
    .border { stroke: #cbd5e1; stroke-width: 1; fill: #ffffff; }
    .header { fill: #0A66C2; }
  </style>
  <text x="0" y="30" class="title">进一步拆开看</text>
  <rect x="0" y="58" width="230" height="58" class="header"/>
  <rect x="230" y="58" width="650" height="58" class="header"/>
  <rect x="880" y="58" width="320" height="58" class="header"/>
  <text x="115" y="95" text-anchor="middle" class="th">子集</text>
  <text x="555" y="95" text-anchor="middle" class="th">来源 / 场景</text>
  <text x="1040" y="95" text-anchor="middle" class="th">规模</text>
  <rect x="0" y="116" width="230" height="60" class="border"/>
  <rect x="230" y="116" width="650" height="60" class="border"/>
  <rect x="880" y="116" width="320" height="60" class="border"/>
  <text x="18" y="153" class="td">社交/心理领域</text>
  <text x="248" y="153" class="td">心理咨询平台真实数据整理后的公开边界版本</text>
  <text x="1040" y="153" text-anchor="middle" class="num">2603 正 + 1735 负</text>
  <rect x="0" y="176" width="230" height="60" class="border"/>
  <rect x="230" y="176" width="650" height="60" class="border"/>
  <rect x="880" y="176" width="320" height="60" class="border"/>
  <text x="18" y="213" class="td">知识领域</text>
  <text x="248" y="213" class="td">K12 课本、课程知识点与成人考试考纲构造</text>
  <text x="1040" y="213" text-anchor="middle" class="num">2004 正 + 1986 负</text>
  <rect x="0" y="236" width="230" height="60" class="border"/>
  <rect x="230" y="236" width="650" height="60" class="border"/>
  <rect x="880" y="236" width="320" height="60" class="border"/>
  <text x="18" y="273" class="td">Trigger-Eval</text>
  <text x="248" y="273" class="td">window_scan 与 direct_request 两类触发场景</text>
  <text x="1040" y="273" text-anchor="middle" class="num">120 + 40</text>
</svg>
